<?xml version="1.0" encoding="UTF-8"?>
<svg width="100pt" height="100pt" version="1.1" viewBox="0 0 100 100" xmlns="http://www.w3.org/2000/svg">
 <g>
  <path d="m13.234 56.266h-13.035v31.266l9.2656-8.5c9.0703 12.668 23.934 20.969 40.734 20.969 25.5 0 46.535-19.102 49.602-43.734h-12.633c-2.9688 17.734-18.402 31.234-36.969 31.234-13.168 0-24.734-6.8008-31.434-17.066l15.434-14.199z"/>
  <path d="m49.801 0c-25.5 0-46.535 19.102-49.602 43.734h12.633c2.9688-17.734 18.402-31.234 36.969-31.234 13.566 0 25.434 7.1992 32.035 17.965l-13.266 13.266h31.266l-0.003907-31.23-8.9648 8.9336c-9.0352-12.969-24.066-21.434-41.066-21.434z"/>
 </g>
</svg>
